<svg width="336" height="170" viewBox="0 0 336 170" fill="none" xmlns="http://www.w3.org/2000/svg">
<rect x="8" y="124" width="328" height="39" fill="#C0C0C0"/>
<rect y="131" width="328" height="39" fill="#D9D9D9"/>
<path d="M34.039 41.768V36.008H28.215V0.615997H34.679V35.368H51.447V29.544H57.975V36.008H52.087V41.768H34.039ZM71.539 41.768V36.008H65.715V6.44H71.539V0.615997H89.587V6.44H95.475V36.008H89.587V41.768H71.539ZM72.179 35.368H88.947V7.08H72.179V35.368ZM109.039 41.768V36.008H103.215V0.615997H109.679V35.368H114.799V23.72H120.687V6.44H127.087V23.72H132.975V35.368H138.159V0.615997H144.559V36.008H138.799V41.768H132.335V36.008H126.447V24.36H121.327V36.008H115.439V41.768H109.039ZM176.674 41.768V7.08H171.554V12.84H165.09V6.44H170.914V0.615997H188.962V6.44H194.85V12.84H188.322V7.08H183.202V41.768H176.674ZM202.039 41.768V36.008H196.215V18.024H202.039V12.2H220.087V18.024H225.975V24.36H219.447V18.6H202.679V23.72H214.327V30.184H202.679V35.368H219.447V29.48H225.975V35.944H220.087V41.768H202.039ZM239.539 41.768V36.008H233.715V18.024H239.539V12.2H257.587V18.024H263.475V24.36H256.947V18.6H240.179V35.368H256.947V29.544H263.475V36.008H257.587V41.768H239.539ZM269.965 41.768V0.615997H276.429V18.024H281.549V12.2H293.837V18.024H299.725V41.768H293.197V18.6H282.189V24.36H276.429V41.768H269.965ZM86.0275 118.768V77.616H109.9V83.44H115.788V89.84H109.26V84.08H92.4915V95.024H104.14V101.36H92.4915V118.768H86.0275ZM122.977 118.768V113.008H117.153V95.024H122.977V89.2H141.025V95.024H146.913V101.36H140.385V95.6H123.617V100.72H135.265V107.184H123.617V112.368H140.385V106.48H146.913V112.944H141.025V118.768H122.977ZM154.653 118.768V112.368H177.885V107.184H160.477V101.36H154.653V95.024H160.477V89.2H184.413V95.6H161.117V100.72H178.525V106.544H184.413V113.008H178.525V118.768H154.653ZM203.737 118.768V113.008H197.977V95.6H192.153V89.2H197.977V77.616H204.377V89.2H221.913V95.6H204.377V112.368H221.273V106.544H227.737V113.008H221.913V118.768H203.737ZM235.465 118V111.536H241.929V118H235.465ZM68.3133 152.8V151.184H72.8253V152.8H68.3133ZM78.8126 145.04C79.4366 145.072 79.8526 145.072 80.2366 145.072C81.0846 145.072 88.0446 145.072 88.8286 145.072C89.1646 145.072 89.7406 145.072 90.2366 145.056C90.2046 145.44 90.2046 145.888 90.2046 146.288C90.2046 147.04 90.2046 153.568 90.2046 154.176C90.2046 154.688 90.2206 155.936 90.2366 156.112H88.8446C88.8606 155.936 88.8766 155.024 88.8766 154.352C88.8766 153.76 88.8766 146.336 88.8766 146.336H80.1406C80.1406 146.336 80.1406 153.696 80.1406 154.352C80.1406 154.88 80.1566 155.904 80.1566 156.112H78.7966C78.7966 155.904 78.8286 154.736 78.8286 154.176C78.8286 153.52 78.8286 146.912 78.8286 146.288C78.8286 145.92 78.8286 145.44 78.8126 145.04ZM89.4046 153.952V155.2H79.5006V153.952H89.4046ZM94.0926 149.072C94.5886 149.12 95.4206 149.168 96.3326 149.168C97.5006 149.168 103.917 149.168 105.101 149.168C105.901 149.168 106.461 149.104 106.829 149.072V150.64C106.493 150.624 105.821 150.576 105.117 150.576C103.901 150.576 97.5166 150.576 96.3326 150.576C95.4526 150.576 94.6046 150.608 94.0926 150.64V149.072ZM111.901 144.176C112.365 144.224 112.829 144.256 113.357 144.256C114.285 144.256 118.941 144.256 119.837 144.256C120.285 144.256 120.861 144.224 121.325 144.176V145.504C120.845 145.472 120.285 145.44 119.837 145.44C118.941 145.44 114.285 145.44 113.373 145.44C112.845 145.44 112.317 145.472 111.901 145.504V144.176ZM109.997 148.192C110.429 148.24 110.893 148.256 111.389 148.256C112.317 148.256 121.005 148.256 121.853 148.256C122.189 148.256 122.717 148.24 123.117 148.192V149.504C122.749 149.488 122.253 149.472 121.853 149.472C121.005 149.472 112.317 149.472 111.389 149.472C110.909 149.472 110.429 149.488 109.997 149.52V148.192ZM117.533 148.832C117.533 150.848 117.277 152.512 116.557 153.856C115.981 154.928 114.765 156.064 113.421 156.768L112.237 155.904C113.469 155.376 114.621 154.464 115.245 153.44C116.045 152.176 116.173 150.608 116.189 148.848L117.533 148.832ZM138.413 146C138.285 146.224 138.125 146.592 138.045 146.848C137.613 148.464 136.637 150.624 135.213 152.368C133.757 154.144 131.837 155.6 128.845 156.72L127.677 155.664C130.621 154.8 132.605 153.36 134.077 151.648C135.309 150.192 136.301 148.112 136.621 146.656H130.701L131.213 145.504C131.853 145.504 135.805 145.504 136.301 145.504C136.733 145.504 137.101 145.456 137.357 145.36L138.413 146ZM133.053 143.584C132.797 144 132.509 144.544 132.349 144.832C131.405 146.608 129.741 148.896 127.165 150.592L126.045 149.776C128.813 148.128 130.381 145.792 131.085 144.368C131.245 144.08 131.485 143.504 131.581 143.088L133.053 143.584ZM154.253 145.376C154.141 145.6 154.077 145.856 154.013 146.176C153.661 147.856 152.893 150.432 151.613 152.08C150.157 153.952 148.253 155.44 145.325 156.352L144.237 155.152C147.341 154.384 149.133 153.024 150.477 151.312C151.613 149.856 152.349 147.632 152.573 146.096C151.645 146.096 145.309 146.096 144.381 146.096C143.741 146.096 143.197 146.128 142.797 146.144V144.72C143.229 144.784 143.869 144.832 144.397 144.832C145.309 144.832 151.693 144.832 152.413 144.832C152.653 144.832 152.973 144.816 153.277 144.752L154.253 145.376ZM159.725 147.744C160.077 147.776 160.573 147.808 160.829 147.808H168.205C168.605 147.808 169.005 147.776 169.325 147.744V149.024C168.989 148.992 168.557 148.976 168.205 148.976H160.845C160.589 148.976 160.061 148.992 159.725 149.024V147.744ZM163.789 155.52V148.464H165.069V155.52H163.789ZM158.957 154.784C159.325 154.832 159.741 154.848 160.093 154.848H168.941C169.325 154.848 169.693 154.816 170.013 154.784V156.112C169.693 156.08 169.197 156.064 168.941 156.064H160.093C159.741 156.064 159.341 156.08 158.957 156.112V154.784ZM185.261 145.312C185.165 145.44 184.957 145.792 184.877 146C184.237 147.584 183.021 149.824 181.693 151.296C179.901 153.296 177.613 155.2 175.085 156.352L174.061 155.28C176.653 154.288 179.005 152.368 180.653 150.544C181.741 149.312 182.909 147.408 183.325 146.08C182.749 146.08 177.629 146.08 177.085 146.08C176.509 146.08 175.645 146.144 175.469 146.16V144.72C175.677 144.752 176.589 144.816 177.085 144.816C177.709 144.816 182.653 144.816 183.261 144.816C183.773 144.816 184.205 144.768 184.461 144.688L185.261 145.312ZM181.901 150.464C183.629 151.904 185.757 154.144 186.845 155.472L185.741 156.448C184.589 154.928 182.717 152.88 180.989 151.36L181.901 150.464ZM191.901 144.176C192.365 144.224 192.829 144.256 193.357 144.256C194.285 144.256 198.941 144.256 199.837 144.256C200.285 144.256 200.861 144.224 201.325 144.176V145.504C200.845 145.472 200.285 145.44 199.837 145.44C198.941 145.44 194.285 145.44 193.373 145.44C192.845 145.44 192.317 145.472 191.901 145.504V144.176ZM189.997 148.192C190.429 148.24 190.893 148.256 191.389 148.256C192.317 148.256 201.005 148.256 201.853 148.256C202.189 148.256 202.717 148.24 203.117 148.192V149.504C202.749 149.488 202.253 149.472 201.853 149.472C201.005 149.472 192.317 149.472 191.389 149.472C190.909 149.472 190.429 149.488 189.997 149.52V148.192ZM197.533 148.832C197.533 150.848 197.277 152.512 196.557 153.856C195.981 154.928 194.765 156.064 193.421 156.768L192.237 155.904C193.469 155.376 194.621 154.464 195.245 153.44C196.045 152.176 196.173 150.608 196.189 148.848L197.533 148.832ZM205.459 151.888C207.571 151.376 209.923 150.256 211.235 149.456C212.739 148.544 214.211 147.216 215.043 146.208L216.035 147.168C215.107 148.16 213.443 149.552 211.779 150.56C210.435 151.36 208.211 152.416 206.083 153.072L205.459 151.888ZM211.091 150.192L212.419 149.856V155.856C212.419 156.336 212.435 157.008 212.499 157.248H211.011C211.043 157.008 211.091 156.336 211.091 155.856V150.192ZM231.763 143.536C232.163 144.112 232.739 145.088 233.075 145.728L232.195 146.112C231.891 145.472 231.347 144.512 230.915 143.904L231.763 143.536ZM233.523 142.896C233.939 143.488 234.563 144.48 234.851 145.072L234.003 145.456C233.651 144.768 233.123 143.856 232.675 143.264L233.523 142.896ZM222.995 151.2C223.699 149.536 224.355 147.104 224.579 145.264L226.003 145.552C225.891 145.904 225.779 146.384 225.699 146.72C225.491 147.712 224.931 150.08 224.259 151.728C223.667 153.184 222.787 154.832 221.891 156.128L220.531 155.552C221.539 154.208 222.451 152.528 222.995 151.2ZM230.883 150.592C230.243 148.944 229.251 146.72 228.563 145.52L229.859 145.088C230.483 146.256 231.507 148.464 232.195 150.144C232.835 151.728 233.683 154.176 234.115 155.632L232.691 156.08C232.291 154.464 231.539 152.288 230.883 150.592ZM243.891 155.664C243.955 155.424 244.003 155.088 244.003 154.768C244.003 154.032 244.003 146.192 244.003 145.184C244.003 144.576 243.923 144.128 243.923 144H245.395C245.379 144.128 245.315 144.592 245.315 145.2C245.315 146.192 245.315 153.936 245.315 154.416C246.803 153.744 248.771 152.288 249.987 150.48L250.755 151.584C249.363 153.456 247.155 155.088 245.299 156.016C245.027 156.144 244.867 156.288 244.739 156.368L243.891 155.664ZM236.563 155.6C237.923 154.64 238.867 153.216 239.347 151.664C239.827 150.192 239.827 147.008 239.827 145.216C239.827 144.752 239.795 144.4 239.715 144.064H241.187C241.171 144.24 241.107 144.736 241.107 145.2C241.107 146.976 241.059 150.416 240.627 152.016C240.147 153.728 239.123 155.28 237.779 156.4L236.563 155.6ZM255.095 152.8V151.184H259.607V152.8H255.095Z" fill="#68A66A"/>
</svg>
